<svg version="1.1" x="0px" y="0px" width="426" height="289" xmlns="http://www.w3.org/2000/svg" xmlns:xlink="http://www.w3.org/1999/xlink" xmlns:a="http://ns.adobe.com/AdobeSVGViewerExtensions/3.0/" ><g transform="translate(137.52001953125 20.000023188983) scale(1.3888892264033 1.3888891714591) rotate(0 53.999992370605 54)"><linearGradient id="SVGID_1" x1="0%" y1="0%" x2="100%" y2="0%" gradientTransform="rotate(90)"></linearGradient><defs fill="#ffffff"></defs><path d="M 99.496 0 H 8.504 C 3.827 0 0 3.827 0 8.504 v 90.992 C 0 104.173 3.827 108 8.504 108 h 90.992 c 4.677 0 8.504 -3.827 8.504 -8.504 V 8.504 C 108 3.827 104.173 0 99.496 0 Z" fill="#ffffff"></path></g>
<g transform="translate(150.48001098633 129.51271573712)  scale(1.1451554137038 1.1451554137038)"><text dominant-baseline="auto" alignment-baseline="auto" font-family="HAZMAT" font-size="62px" fill="#000000" letter-spacing="0" >4</text></g>
<g transform="translate(277.39023453968 129.17272270482)  scale(-1.1451554672878 1.1451554672878)"><text dominant-baseline="auto" alignment-baseline="auto" font-family="HAZMAT" font-size="62px" fill="#000000" letter-spacing="0" >4</text></g>
<g transform="translate(85.044535322806 263.0516272414)  scale(0.73313858818249 0.73313858818249)"><text dominant-baseline="auto" alignment-baseline="auto" font-family="ADAM.CG PRO" font-size="34px" fill="#ffffff" letter-spacing="0" >VEHICULES DE SPORT</text></g>
<g transform="translate(20.000030517578 228.25806778392)  scale(1 1)"><text dominant-baseline="auto" alignment-baseline="auto" font-family="Zwodrei" font-size="62px" fill="#ffffff" letter-spacing="0" >44.LOCATION</text></g>
</svg>