<svg xmlns="http://www.w3.org/2000/svg" width="125" height="125" viewBox="0 0 125 125">
  <g id="_2" data-name="2" transform="translate(-898 -2116)">
    <g id="Ellipse_70" data-name="Ellipse 70" transform="translate(898 2116)" fill="#f8f3f1" stroke="#707070" stroke-width="1">
      <circle cx="62.5" cy="62.5" r="62.5" stroke="none"/>
      <circle cx="62.5" cy="62.5" r="62" fill="none"/>
    </g>
    <g id="business-and-finance" transform="translate(929.472 2148.207)">
      <path id="Path_795" data-name="Path 795" d="M55.752,313.781h-22.6a2.918,2.918,0,0,0-.6-1.185l-5.4-6.3a.97.97,0,0,0-.741-.342H15.649v-.978a.978.978,0,0,0-.978-.978H.978a.978.978,0,0,0-.978.978V326.5a.978.978,0,0,0,.978.978H8.8a.978.978,0,0,0,.978-.978v-.978h4.891a.978.978,0,0,0,.978-.978v-.978H22.2l5.622,3.748a.985.985,0,0,0,.543.164,1,1,0,0,0,.209-.022l31.3-6.847a.979.979,0,0,0,.769-.956v-.978a4.9,4.9,0,0,0-4.891-4.891ZM7.825,325.518H1.956V305.956H7.825Zm5.869-1.956H9.781V305.956h3.912Zm44.993-4.7-30.124,6.59-5.522-3.682a.986.986,0,0,0-.543-.164H15.649V307.912H25.959l5.105,5.956a.982.982,0,0,1,.235.636v1.234a.979.979,0,0,1-.978.978H29.175a.985.985,0,0,1-.692-.287l-4.317-4.317-1.383,1.383,4.317,4.317a2.913,2.913,0,0,0,2.075.86h1.146a2.938,2.938,0,0,0,2.934-2.934h22.5a2.938,2.938,0,0,1,2.934,2.934Zm0,0" transform="translate(0 -266.832)" fill="#61697f"/>
      <path id="Path_796" data-name="Path 796" d="M179.036,0h-5.869a.978.978,0,0,0-.978.978v.978H138.934a2.934,2.934,0,0,0,0,5.869h11.737v9.781a.975.975,0,0,0,.287.692l3.339,3.339a2.913,2.913,0,0,0,2.075.86h.168a2.938,2.938,0,0,0,2.934-2.934v-.167a2.916,2.916,0,0,0-.86-2.076l-2.075-2.075V8.8a.979.979,0,0,1,.978-.978h5.869a.979.979,0,0,1,.978.978v6.442l-2.075,2.075a2.913,2.913,0,0,0-.86,2.076v.167a2.938,2.938,0,0,0,2.934,2.934h.168a2.913,2.913,0,0,0,2.075-.86l3.339-3.339a.976.976,0,0,0,.287-.692V7.825h1.956v6.847a.978.978,0,0,0,.978.978h5.869a.978.978,0,0,0,.978-.978V.978A.978.978,0,0,0,179.036,0Zm-9.781,5.869a.978.978,0,0,0-.978.978V17.2l-3.053,3.053a.987.987,0,0,1-.692.287h-.168a.979.979,0,0,1-.978-.978v-.167a.974.974,0,0,1,.287-.693l2.361-2.361a.975.975,0,0,0,.287-.692V8.8a2.938,2.938,0,0,0-2.934-2.934h-5.869A2.938,2.938,0,0,0,154.584,8.8V15.65a.976.976,0,0,0,.287.692l2.361,2.361a.974.974,0,0,1,.287.693v.167a.979.979,0,0,1-.978.978h-.168a.985.985,0,0,1-.692-.287L152.628,17.2V6.847a.978.978,0,0,0-.978-.978H138.934a.978.978,0,1,1,0-1.956H172.19V5.869Zm8.8,7.825h-3.912V1.956h3.912Zm0,0" transform="translate(-117.137)" fill="#61697f"/>
      <path id="Path_797" data-name="Path 797" d="M271.825,168v3.912h-6.847a.978.978,0,0,0-.978.978v12.023a6.81,6.81,0,0,0,3.784,6.124l4.582,2.291a.981.981,0,0,0,.874,0l4.582-2.291a6.81,6.81,0,0,0,3.784-6.124V172.89a.978.978,0,0,0-.978-.978h-6.847V168Zm-5.869,16.913V173.869h5.869V176a2.93,2.93,0,0,0-1.956,2.754v1.956a2.938,2.938,0,0,0,2.934,2.934.979.979,0,0,1,.978.978v1.956a.978.978,0,1,1-1.956,0v-.978h-1.956v.978a2.93,2.93,0,0,0,1.956,2.754v1.532l-3.165-1.582A4.863,4.863,0,0,1,265.956,184.913Zm13.693-11.045v11.045a4.863,4.863,0,0,1-2.7,4.374l-3.165,1.582v-1.532a2.93,2.93,0,0,0,1.956-2.754v-1.956a2.938,2.938,0,0,0-2.934-2.934.979.979,0,0,1-.978-.978v-1.956a.978.978,0,1,1,1.956,0v.978h1.956v-.978A2.93,2.93,0,0,0,273.781,176v-2.136Zm0,0" transform="translate(-231.723 -147.46)" fill="#61697f"/>
    </g>
  </g>
</svg>
