<svg xmlns="http://www.w3.org/2000/svg" width="125" height="125" viewBox="0 0 125 125">
  <g id="_4" data-name="4" transform="translate(-432 -2556)">
    <g id="Ellipse_77" data-name="Ellipse 77" transform="translate(432 2556)" fill="#f8f3f1" stroke="#707070" stroke-width="1">
      <circle cx="62.5" cy="62.5" r="62.5" stroke="none"/>
      <circle cx="62.5" cy="62.5" r="62" fill="none"/>
    </g>
    <path id="Path_907" data-name="Path 907" d="M60.227,32.227l-4.068-4.689a3.628,3.628,0,0,1-.748-3.4L57.039,18.5a7.314,7.314,0,0,0-7.294-9.345l-6.188.221a3.631,3.631,0,0,1-3.071-1.492l-3.563-4.88a7.315,7.315,0,0,0-11.823,0l-3.563,4.88a3.636,3.636,0,0,1-3.07,1.492L12.28,9.156A7.315,7.315,0,0,0,4.986,18.5l1.628,5.641a3.627,3.627,0,0,1-.748,3.4L1.8,32.227A7.314,7.314,0,0,0,4.6,43.817L10,45.981a3.665,3.665,0,0,1,2.234,2.765l1.025,5.995a7.325,7.325,0,0,0,10.822,5.135l5.141-2.911a3.659,3.659,0,0,1,3.588,0l5.141,2.911a7.323,7.323,0,0,0,10.821-5.135l1.026-5.995a3.665,3.665,0,0,1,2.233-2.765l5.395-2.164a7.313,7.313,0,0,0,2.8-11.59ZM56.053,40.4l-5.395,2.164a7.366,7.366,0,0,0-4.49,5.559l-1.026,5.995a3.638,3.638,0,0,1-5.382,2.554l-5.141-2.911a7.357,7.357,0,0,0-7.213,0l-5.141,2.911a3.638,3.638,0,0,1-5.382-2.554l-1.026-5.994a7.367,7.367,0,0,0-4.49-5.559L5.972,40.4a3.638,3.638,0,0,1-1.395-5.765L8.646,29.95a7.293,7.293,0,0,0,1.5-6.828L8.52,17.481a3.638,3.638,0,0,1,3.628-4.648l6.188.222a7.311,7.311,0,0,0,6.174-3l3.563-4.879a3.638,3.638,0,0,1,5.88,0l3.563,4.879a7.305,7.305,0,0,0,6.174,3l6.188-.222A3.638,3.638,0,0,1,53.5,17.481l-1.629,5.641a7.291,7.291,0,0,0,1.5,6.827l4.068,4.689A3.638,3.638,0,0,1,56.053,40.4Zm0,0" transform="translate(463.771 2587.66)" fill="#61697f"/>
    <path id="Path_908" data-name="Path 908" d="M156.092,138.991h6.879a1.533,1.533,0,1,0,0-3.066h-5.3a1.581,1.581,0,0,1,.849-1.039l3.347-1.6A4.744,4.744,0,0,0,159.8,124.3a5.243,5.243,0,0,0-5.237,5.237,1.533,1.533,0,0,0,3.066,0,2.174,2.174,0,0,1,2.171-2.172,1.677,1.677,0,0,1,.729,3.171l-3.324,1.585a4.661,4.661,0,0,0-2.643,4.188v1.151A1.533,1.533,0,0,0,156.092,138.991Zm0,0" transform="translate(327.936 2478.42)" fill="#61697f"/>
    <path id="Path_909" data-name="Path 909" d="M255.537,135.226h4.875v2.23a1.533,1.533,0,0,0,3.066,0v-2.23h.173a1.533,1.533,0,1,0,0-3.066h-.173v-.888a1.533,1.533,0,1,0-3.066,0v.888h-2.258l3.133-5.581a1.533,1.533,0,0,0-2.674-1.5l-4.414,7.865a1.534,1.534,0,0,0,1.337,2.284Zm0,0" transform="translate(240.539 2478.422)" fill="#61697f"/>
    <path id="Path_910" data-name="Path 910" d="M148.691,268.133H118.645a1.84,1.84,0,0,0,0,3.679h30.046a1.84,1.84,0,0,0,0-3.679Zm0,0" transform="translate(361.116 2352.008)" fill="#61697f"/>
    <path id="Path_911" data-name="Path 911" d="M221.705,321.449h-5.629a1.533,1.533,0,1,0,0,3.066h3.609l-2.07,7.406a1.533,1.533,0,0,0,2.953.825l2.614-9.351A1.534,1.534,0,0,0,221.705,321.449Zm0,0" transform="translate(275.218 2305.151)" fill="#61697f"/>
  </g>
</svg>
