<svg xmlns="http://www.w3.org/2000/svg" width="125" height="125" viewBox="0 0 125 125">
  <g id="_5" data-name="5" transform="translate(-898 -2556)">
    <g id="Ellipse_76" data-name="Ellipse 76" transform="translate(898 2556)" fill="#f8f3f1" stroke="#707070" stroke-width="1">
      <circle cx="62.5" cy="62.5" r="62.5" stroke="none"/>
      <circle cx="62.5" cy="62.5" r="62" fill="none"/>
    </g>
    <g id="Group_1582" data-name="Group 1582" transform="translate(934.013 2592.013)">
      <g id="Group_1581" data-name="Group 1581">
        <path id="Path_912" data-name="Path 912" d="M43.7,0H10.278A10.29,10.29,0,0,0,0,10.278V43.7A10.29,10.29,0,0,0,10.278,53.975H43.7A10.29,10.29,0,0,0,53.975,43.7V10.278A10.29,10.29,0,0,0,43.7,0Zm8.7,43.7a8.707,8.707,0,0,1-8.7,8.7H10.278a8.707,8.707,0,0,1-8.7-8.7V10.278a8.707,8.707,0,0,1,8.7-8.7H43.7a8.707,8.707,0,0,1,8.7,8.7Z" fill="#61697f"/>
      </g>
    </g>
    <g id="Group_1584" data-name="Group 1584" transform="translate(958.734 2598.338)">
      <g id="Group_1583" data-name="Group 1583">
        <path id="Path_913" data-name="Path 913" d="M251.947,60H240.562a.791.791,0,0,0-.791.791v4.225h-4.48a.791.791,0,0,0,0,1.581h15.866v3.471a4.9,4.9,0,1,1-9.8,0v-1.1a.791.791,0,1,0-1.581,0v1.1a6.483,6.483,0,0,0,12.967,0V60.791A.791.791,0,0,0,251.947,60Zm-.791,5.016h-9.8V61.581h9.8Z" transform="translate(-234.5 -60)" fill="#61697f"/>
      </g>
    </g>
    <g id="Group_1586" data-name="Group 1586" transform="translate(942.025 2616.47)">
      <g id="Group_1585" data-name="Group 1585">
        <path id="Path_914" data-name="Path 914" d="M107.89,232H79.426a3.426,3.426,0,0,0,0,6.852H94.955l-.4,15.529a.79.79,0,0,0,.79.811h17.394a.795.795,0,0,1,.422,0,.791.791,0,0,0,.791-.791v-16.34A6.068,6.068,0,0,0,107.89,232Zm-28.463,5.271a1.845,1.845,0,0,1,0-3.69H107.89a4.454,4.454,0,0,1,2.557.8l-14.16,14.16.27-10.465a.791.791,0,0,0-.79-.811Zm32.944,16.34H96.156l.068-2.635H112.37Zm0-4.217H97.675l13.89-13.89a4.454,4.454,0,0,1,.8,2.557Z" transform="translate(-76 -232)" fill="#61697f"/>
      </g>
    </g>
    <g id="Group_1588" data-name="Group 1588" transform="translate(942.025 2603.82)">
      <g id="Group_1587" data-name="Group 1587">
        <path id="Path_915" data-name="Path 915" d="M89.441,112H76.791a.791.791,0,0,0-.791.791v9.488a.791.791,0,0,0,.791.791h12.65a.791.791,0,0,0,.791-.791v-9.488A.791.791,0,0,0,89.441,112Zm-7.116,9.488H77.581v-7.907h4.744Zm6.325,0H83.907v-7.907H88.65Z" transform="translate(-76 -112)" fill="#61697f"/>
      </g>
    </g>
  </g>
</svg>
