<svg xmlns="http://www.w3.org/2000/svg" width="125" height="125" viewBox="0 0 125 125">
  <g id="_6" data-name="6" transform="translate(-1361 -2556)">
    <g id="Ellipse_75" data-name="Ellipse 75" transform="translate(1361 2556)" fill="#f8f3f1" stroke="#707070" stroke-width="1">
      <circle cx="62.5" cy="62.5" r="62.5" stroke="none"/>
      <circle cx="62.5" cy="62.5" r="62" fill="none"/>
    </g>
    <path id="Path_918" data-name="Path 918" d="M274.105,103.646a1.2,1.2,0,0,1-.917-1.972,1.493,1.493,0,0,0,.329-.7l9.012-48.657a1.524,1.524,0,0,0-1.219-1.774l-7.332-1.358a1.2,1.2,0,0,1,.437-2.36l7.332,1.357a3.928,3.928,0,0,1,3.142,4.57l-9.012,48.657a3.909,3.909,0,0,1-.853,1.808,1.2,1.2,0,0,1-.919.428Zm0,0" transform="translate(1170.651 2546.473)" fill="#61697f"/>
    <path id="Path_919" data-name="Path 919" d="M46.621,67.193H4.07A3.925,3.925,0,0,1,.148,63.271V3.922A3.926,3.926,0,0,1,4.07,0H46.621a3.926,3.926,0,0,1,3.922,3.922V63.271A3.926,3.926,0,0,1,46.621,67.193ZM4.07,2.4A1.524,1.524,0,0,0,2.548,3.922V63.271A1.524,1.524,0,0,0,4.07,64.793H46.621a1.524,1.524,0,0,0,1.522-1.522V3.922A1.524,1.524,0,0,0,46.621,2.4Zm0,0" transform="translate(1395.468 2585.05)" fill="#61697f"/>
    <path id="Path_920" data-name="Path 920" d="M80.33,208.772h-31.2a1.2,1.2,0,0,1-1.2-1.2v-3.907c0-3.355,3.71-5.692,7.041-5.692H58.96a1.2,1.2,0,1,1,0,2.4H54.975c-2.343,0-4.641,1.631-4.641,3.293v2.707h28.8v-3.221c0-1.4-2-2.779-4.04-2.779H70.308a1.2,1.2,0,1,1,0-2.4H75.09c3.046,0,6.44,2.127,6.44,5.178v4.421a1.2,1.2,0,0,1-1.2,1.2Zm0,0" transform="translate(1356.081 2421.874)" fill="#61697f"/>
    <path id="Path_921" data-name="Path 921" d="M95.246,66.384q-.049,0-.1,0a1.2,1.2,0,0,1-1.1-1.294l.6-7.324a7.4,7.4,0,0,0-7.131-7.576H81.374a7.424,7.424,0,0,0-7.127,7.675l.6,7.225a1.2,1.2,0,1,1-2.391.2l-.6-7.323c0-5.654,4.269-10.174,9.522-10.174h6.145A9.823,9.823,0,0,1,97.045,57.86l-.6,7.422a1.2,1.2,0,0,1-1.195,1.1Zm0,0" transform="translate(1336.367 2545.664)" fill="#61697f"/>
    <path id="Path_922" data-name="Path 922" d="M87.238,118.013a10.961,10.961,0,0,1-8.405-3.427,15.387,15.387,0,0,1-3.594-9.221v-4.836c0-2.04.047-3.22,1-3.743.847-.474,1.648.035,2.354.478a8.112,8.112,0,0,0,4.671,1.484,27.823,27.823,0,0,0,6.291-1.123c3.512-.893,6.544-1.662,8.377-.238a3.75,3.75,0,0,1,1.309,3.143v4.836a15.387,15.387,0,0,1-3.594,9.221,10.96,10.96,0,0,1-8.4,3.427ZM77.652,99.508c-.008.268-.013.6-.013,1.02v4.836a13.046,13.046,0,0,0,3.033,7.679,9.673,9.673,0,0,0,13.132,0,13.047,13.047,0,0,0,3.033-7.679v-4.836a1.549,1.549,0,0,0-.383-1.248c-.906-.706-3.778.027-6.312.669a29.419,29.419,0,0,1-6.882,1.2A10.31,10.31,0,0,1,77.652,99.508Zm0,0" transform="translate(1333.576 2505.433)" fill="#61697f"/>
    <path id="Path_923" data-name="Path 923" d="M87.983,302.774h-25.2a1.2,1.2,0,1,1,0-2.4h25.2a1.2,1.2,0,1,1,0,2.4Zm0,0" transform="translate(1344.829 2337.47)" fill="#61697f"/>
    <path id="Path_924" data-name="Path 924" d="M75.985,330.079h-13.2a1.2,1.2,0,1,1,0-2.4h13.2a1.2,1.2,0,0,1,0,2.4Zm0,0" transform="translate(1344.828 2314.964)" fill="#61697f"/>
  </g>
</svg>
