<svg xmlns="http://www.w3.org/2000/svg" width="114" height="114" viewBox="0 0 114 114">
  <g id="backtime" transform="translate(-734 -2154)">
    <g id="Ellipse_70" data-name="Ellipse 70" transform="translate(734 2154)" fill="#f8f3f1" stroke="#61697f" stroke-width="1">
      <circle cx="57" cy="57" r="57" stroke="none"/>
      <circle cx="57" cy="57" r="56.5" fill="none"/>
    </g>
    <g id="Layer_1_65_" transform="translate(766 2188)">
      <g id="Group_1598" data-name="Group 1598" transform="translate(3 3)">
        <path id="Path_947" data-name="Path 947" d="M43.064,18.617a.908.908,0,0,0-.823-.522H39.554a19.931,19.931,0,1,0-2.334,13.6,1.813,1.813,0,0,0-3.139-1.817A16.335,16.335,0,1,1,35.844,18.1H33.178a.907.907,0,0,0-.7,1.487l4.533,5.44a.907.907,0,0,0,1.393,0l4.533-5.44A.906.906,0,0,0,43.064,18.617Z" transform="translate(0 -1.775)" fill="#61697f"/>
        <path id="Path_948" data-name="Path 948" d="M21.443,6.713A1.813,1.813,0,0,0,19.63,8.526v11A3.17,3.17,0,0,0,21.444,25.3a3.134,3.134,0,0,0,1.339-.307l6.307,3.64a1.794,1.794,0,0,0,.905.244,1.813,1.813,0,0,0,.907-3.383l-6.314-3.646a3.158,3.158,0,0,0-1.33-2.319v-11A1.817,1.817,0,0,0,21.443,6.713Zm0,16.772a1.359,1.359,0,1,1,1.36-1.359A1.361,1.361,0,0,1,21.443,23.485Z" transform="translate(-1.497 -2.18)" fill="#61697f"/>
      </g>
    </g>
  </g>
</svg>
