<svg xmlns="http://www.w3.org/2000/svg" width="114" height="114" viewBox="0 0 114 114">
  <g id="ekipa" transform="translate(-1079 -2154)">
    <g id="Ellipse_70" data-name="Ellipse 70" transform="translate(1079 2154)" fill="#f8f3f1" stroke="#61697f" stroke-width="1">
      <circle cx="57" cy="57" r="57" stroke="none"/>
      <circle cx="57" cy="57" r="56.5" fill="none"/>
    </g>
    <g id="population" transform="translate(1117 2192.001)">
      <path id="Path_949" data-name="Path 949" d="M4.94,421.807A5.716,5.716,0,0,0,0,427.532a.767.767,0,0,0,.767.767H9.854a1.087,1.087,0,0,0,1.087-1.087,5.44,5.44,0,0,0-6-5.405Zm0,0" transform="translate(0 -391.22)" fill="#61697f"/>
      <path id="Path_950" data-name="Path 950" d="M186.434,421.777A5.44,5.44,0,0,0,181,427.211a1.087,1.087,0,0,0,1.087,1.087h8.694a1.087,1.087,0,0,0,1.087-1.087A5.44,5.44,0,0,0,186.434,421.777Zm0,0" transform="translate(-167.886 -391.219)" fill="#61697f"/>
      <path id="Path_951" data-name="Path 951" d="M366.434,421.777A5.44,5.44,0,0,0,361,427.211a1.087,1.087,0,0,0,1.087,1.087h8.767a1.087,1.087,0,0,0,1.087-1.087A5.5,5.5,0,0,0,366.434,421.777Zm0,0" transform="translate(-334.845 -391.219)" fill="#61697f"/>
      <path id="Path_952" data-name="Path 952" d="M34.26,338.3a3.26,3.26,0,1,0-3.26-3.26A3.264,3.264,0,0,0,34.26,338.3Zm0,0" transform="translate(-28.754 -307.74)" fill="#61697f"/>
      <path id="Path_953" data-name="Path 953" d="M217.521,335.037a3.26,3.26,0,1,0-3.26,3.26A3.264,3.264,0,0,0,217.521,335.037Zm0,0" transform="translate(-195.712 -307.74)" fill="#61697f"/>
      <path id="Path_954" data-name="Path 954" d="M142.521,155.037a3.26,3.26,0,1,0-3.26,3.26A3.264,3.264,0,0,0,142.521,155.037Zm0,0" transform="translate(-126.146 -140.781)" fill="#61697f"/>
      <path id="Path_955" data-name="Path 955" d="M292.521,155.037a3.26,3.26,0,1,0-3.26,3.26A3.264,3.264,0,0,0,292.521,155.037Zm0,0" transform="translate(-265.279 -140.781)" fill="#61697f"/>
      <path id="Path_956" data-name="Path 956" d="M397.521,335.037a3.26,3.26,0,1,0-3.26,3.26A3.264,3.264,0,0,0,397.521,335.037Zm0,0" transform="translate(-362.671 -307.74)" fill="#61697f"/>
      <path id="Path_957" data-name="Path 957" d="M212.855,4.026l.318-.319V7.6a1.087,1.087,0,0,0,2.174,0v-3.9l.318.319A1.087,1.087,0,0,0,217.2,2.49L215.03.317a1.09,1.09,0,0,0-1.54,0L211.318,2.49a1.087,1.087,0,0,0,1.537,1.537Zm0,0" transform="translate(-195.712)" fill="#61697f"/>
      <path id="Path_958" data-name="Path 958" d="M362.855,4.026l.318-.319V7.6a1.087,1.087,0,0,0,2.174,0v-3.9l.318.319A1.087,1.087,0,1,0,367.2,2.49L365.03.317a1.09,1.09,0,0,0-1.54,0L361.318,2.49a1.087,1.087,0,1,0,1.537,1.537Zm0,0" transform="translate(-334.844)" fill="#61697f"/>
      <path id="Path_959" data-name="Path 959" d="M62.855,4.032l.318-.319v3.9a1.087,1.087,0,1,0,2.174,0v-3.9l.318.319A1.087,1.087,0,0,0,67.2,2.495L65.03.322a1.091,1.091,0,0,0-1.54,0L61.318,2.495a1.087,1.087,0,1,0,1.537,1.537Zm0,0" transform="translate(-56.58 -0.005)" fill="#61697f"/>
      <path id="Path_960" data-name="Path 960" d="M265,251.559a5.432,5.432,0,0,1,3.2-4.941,5.417,5.417,0,0,0-10.7-.482,5.433,5.433,0,0,1,5.325,5.423,5.375,5.375,0,0,1-.765,2.734,7.617,7.617,0,0,1,1.852,2.1,7.616,7.616,0,0,1,1.852-2.1A5.374,5.374,0,0,1,265,251.559Zm0,0" transform="translate(-238.843 -224.261)" fill="#61697f"/>
      <path id="Path_961" data-name="Path 961" d="M112.2,251.558a5.434,5.434,0,0,1,5.325-5.423,5.417,5.417,0,0,0-10.7.482,5.432,5.432,0,0,1,3.2,4.941,5.374,5.374,0,0,1-.765,2.733,7.617,7.617,0,0,1,1.852,2.1,7.618,7.618,0,0,1,1.851-2.1,5.375,5.375,0,0,1-.765-2.734Zm0,0" transform="translate(-99.088 -224.261)" fill="#61697f"/>
    </g>
  </g>
</svg>
