<svg xmlns="http://www.w3.org/2000/svg" width="114" height="114" viewBox="0 0 114 114">
  <g id="globi" transform="translate(-734 -2507)">
    <g id="Ellipse_82" data-name="Ellipse 82" transform="translate(734 2507)" fill="#f8f3f1" stroke="#61697f" stroke-width="1">
      <circle cx="57" cy="57" r="57" stroke="none"/>
      <circle cx="57" cy="57" r="56.5" fill="none"/>
    </g>
    <g id="gdpr" transform="translate(763.4 2545)">
      <g id="Group_1572" data-name="Group 1572" transform="translate(9.6)">
        <g id="Group_1571" data-name="Group 1571" transform="translate(0)">
          <path id="Path_865" data-name="Path 865" d="M89.429,83.2H88.211V97.811H76.1a13.331,13.331,0,0,1,.289-1.889l-2.371-.559a16.013,16.013,0,0,0-.423,3.665A15.829,15.829,0,1,0,89.429,83.2ZM77.5,105.117a13.285,13.285,0,0,1-1.409-4.87h4.812a18.264,18.264,0,0,0,.992,4.87Zm1.619,2.435H82.94A18.363,18.363,0,0,0,86.218,112l.018.018A13.394,13.394,0,0,1,79.122,107.552Zm9.089,3-.272-.272a16.037,16.037,0,0,1-2.177-2.731h2.449Zm0-5.438H84.48a15.822,15.822,0,0,1-1.14-4.87h4.87Zm13.15-12.176a13.285,13.285,0,0,1,1.409,4.87H97.9a18.263,18.263,0,0,0-.992-4.87Zm-1.625-2.435H95.856a18.386,18.386,0,0,0-3.28-4.455l-.035-.035A13.394,13.394,0,0,1,99.736,90.506Zm-9.089-2.942.208.208a16.072,16.072,0,0,1,2.18,2.734H90.646Zm0,5.377h3.669a15.787,15.787,0,0,1,1.142,4.87H90.646Zm0,7.306h4.811a15.787,15.787,0,0,1-1.142,4.87H90.646Zm0,10.247v-2.942h2.388a16.072,16.072,0,0,1-2.18,2.733Zm1.895,1.549.035-.035a18.386,18.386,0,0,0,3.28-4.455h3.879A13.394,13.394,0,0,1,92.541,112.042Zm8.82-6.926H96.9a18.264,18.264,0,0,0,.992-4.87h4.87A13.285,13.285,0,0,1,101.361,105.117Z" transform="translate(-68.73 -76.868)" fill="#61697f"/>
          <path id="Path_866" data-name="Path 866" d="M18.123,17.356l.385-.129A11.868,11.868,0,0,0,22,15.37l-1.487-1.929a9.444,9.444,0,0,1-2.393,1.338,9.452,9.452,0,0,1-6.088-8.842V5.058a13.218,13.218,0,0,0,6.088-2.136,13.218,13.218,0,0,0,6.088,2.134v.879a9.406,9.406,0,0,1-.252,2.171l2.371.559a11.927,11.927,0,0,0,.317-2.729V2.679H25.429A10.819,10.819,0,0,1,19.413.852L18.123,0,16.834.852a10.819,10.819,0,0,1-6.016,1.826H9.6V5.937a11.884,11.884,0,0,0,8.138,11.29Z" transform="translate(-9.6)" fill="#61697f"/>
          <path id="Path_867" data-name="Path 867" d="M176.711,134.232l-2.183-1.08a9.45,9.45,0,0,1-1.168,1.809l1.884,1.544A11.919,11.919,0,0,0,176.711,134.232Z" transform="translate(-160.898 -123.019)" fill="#61697f"/>
          <path id="Path_868" data-name="Path 868" d="M81.584,74.68,80.01,73.106l-1.722,1.722,3.3,3.3L86.1,73.61l-1.722-1.722Z" transform="translate(-73.061 -66.417)" fill="#61697f"/>
        </g>
      </g>
    </g>
  </g>
</svg>
