<svg xmlns="http://www.w3.org/2000/svg" width="138" height="71.724" viewBox="0 0 138 71.724">
  <g id="Group_1807" data-name="Group 1807" transform="translate(-328.875 -368.034)">
    <rect id="Rectangle_2601" data-name="Rectangle 2601" width="67.428" height="0.531" transform="translate(373.93 418.791) rotate(-45)" fill="#fff"/>
    <rect id="Rectangle_2602" data-name="Rectangle 2602" width="0.531" height="67.428" transform="matrix(0.707, -0.707, 0.707, 0.707, 373.93, 371.488)" fill="#fff"/>
    <text id="J" transform="translate(373.89 400.655)" fill="#fff" font-size="13.481" font-family="Century"><tspan x="0" y="0">J</tspan></text>
    <text id="B" transform="translate(412.356 400.655)" fill="#fff" font-size="13.481" font-family="Century"><tspan x="0" y="0">B</tspan></text>
    <text id="G" transform="translate(391.854 381.034)" fill="#fff" font-size="13.481" font-family="Century"><tspan x="0" y="0">G</tspan></text>
    <text id="BROOKES_PARTNERS" data-name="BROOKES &amp; PARTNERS" transform="translate(397.875 437.758)" fill="#fff" font-size="8.824" font-family="Century" letter-spacing="0.2em"><tspan x="-68.687" y="0">BROOKES &amp; PARTNERS</tspan></text>
    <path id="Path_1170" data-name="Path 1170" d="M397.966,405.543a3.917,3.917,0,1,0,3.916,3.917A3.916,3.916,0,0,0,397.966,405.543Zm2.964,2.078a.11.11,0,1,1-.04.15A.109.109,0,0,1,400.93,407.621Zm-.576-.705a.11.11,0,1,1,0,.156A.109.109,0,0,1,400.354,406.916Zm-.74-.531a.109.109,0,0,1,.15-.04.11.11,0,1,1-.15.04Zm-.852-.322a.11.11,0,1,1,.078.135A.111.111,0,0,1,398.762,406.063Zm-.8-.2a.11.11,0,1,1-.11.11A.11.11,0,0,1,397.966,405.863Zm-.931.122a.11.11,0,0,1,.135.078.11.11,0,1,1-.135-.078Zm-.867.36a.11.11,0,1,1-.04.15A.109.109,0,0,1,396.168,406.345Zm-.745.571a.11.11,0,1,1,0,.156A.11.11,0,0,1,395.423,406.916Zm-.931,1.613a.112.112,0,0,1,.136-.079.111.111,0,0,1,.077.136.11.11,0,0,1-.213-.057Zm-.122.931a.11.11,0,1,1,.11.109A.109.109,0,0,1,394.37,409.46Zm.258,1.008a.11.11,0,1,1-.057-.213.11.11,0,0,1,.057.213Zm.223-2.807a.112.112,0,0,1,.151-.04.11.11,0,0,1,.041.15.111.111,0,1,1-.192-.11ZM395,411.3a.111.111,0,0,1-.151-.04.112.112,0,0,1,.04-.152.113.113,0,0,1,.151.041A.111.111,0,0,1,395,411.3Zm.576.7a.109.109,0,0,1-.156,0,.11.11,0,1,1,.156,0Zm.74.532a.112.112,0,0,1-.151.04.11.11,0,1,1,.151-.04Zm.851.321a.11.11,0,1,1-.077-.135A.11.11,0,0,1,397.17,412.855Zm.8.2a.111.111,0,1,1,.109-.11A.111.111,0,0,1,397.967,413.056Zm.93-.123a.11.11,0,1,1,.078-.135A.11.11,0,0,1,398.9,412.933Zm.868-.359a.11.11,0,0,1-.111-.191.11.11,0,0,1,.151.04A.112.112,0,0,1,399.765,412.574Zm.745-.572a.112.112,0,0,1-.157,0,.111.111,0,1,1,.157,0Zm-2.544.512a3.055,3.055,0,1,1,3.055-3.054A3.054,3.054,0,0,1,397.966,412.514Zm3.115-1.257a.11.11,0,1,1-.191-.11.112.112,0,0,1,.151-.041A.11.11,0,0,1,401.081,411.257Zm.224-2.807a.111.111,0,0,1,.135.079.109.109,0,0,1-.078.134.111.111,0,0,1-.135-.077A.112.112,0,0,1,401.3,408.45Zm.136,1.94a.111.111,0,1,1-.079-.135A.111.111,0,0,1,401.441,410.39Zm.011-.821a.11.11,0,1,1,.111-.11A.11.11,0,0,1,401.452,409.569Z" fill="#fff"/>
    <g id="Group_1802" data-name="Group 1802">
      <path id="Path_1171" data-name="Path 1171" d="M397.966,408.444l-9.244,1.016h18.489Z" fill="#fff"/>
    </g>
    <path id="Path_1172" data-name="Path 1172" d="M397.966,410.546h-.007l-9.884-1.085,9.891-1.087h.008l9.884,1.087Zm-8.6-1.086,8.6.945,8.6-.945-8.6-.945Z" fill="#fff"/>
    <g id="Group_1803" data-name="Group 1803">
      <path id="Path_1173" data-name="Path 1173" d="M396.95,409.46l1.016,9.245V400.215Z" fill="#fff"/>
    </g>
    <path id="Path_1174" data-name="Path 1174" d="M397.966,419.351l-1.087-9.891v-.008l1.086-9.884,1.087,9.892v.007Zm-.945-9.891.945,8.6.945-8.6-.945-8.6Z" fill="#fff"/>
    <path id="Path_1175" data-name="Path 1175" d="M398.3,399.884a.331.331,0,1,1-.331-.33A.331.331,0,0,1,398.3,399.884Z" fill="#fff"/>
    <path id="Path_1176" data-name="Path 1176" d="M388.391,409.129a.331.331,0,1,1-.332.331A.33.33,0,0,1,388.391,409.129Z" fill="#fff"/>
    <path id="Path_1177" data-name="Path 1177" d="M397.635,419.035a.331.331,0,1,1,.331.331A.331.331,0,0,1,397.635,419.035Z" fill="#fff"/>
    <path id="Path_1178" data-name="Path 1178" d="M407.542,409.791a.331.331,0,1,1,.331-.331A.332.332,0,0,1,407.542,409.791Z" fill="#fff"/>
    <path id="Path_1179" data-name="Path 1179" d="M400.27,409.46a2.3,2.3,0,1,1-2.3-2.3A2.3,2.3,0,0,1,400.27,409.46Z" fill="#fff"/>
    <path id="Path_1180" data-name="Path 1180" d="M397.966,411.834a2.375,2.375,0,1,1,2.375-2.374A2.377,2.377,0,0,1,397.966,411.834Zm0-4.608a2.233,2.233,0,1,0,2.233,2.234A2.236,2.236,0,0,0,397.966,407.226Z" fill="#fff"/>
    <path id="Path_1181" data-name="Path 1181" d="M399.249,409.46a1.283,1.283,0,1,1-1.283-1.284A1.282,1.282,0,0,1,399.249,409.46Z" fill="#fff"/>
    <g id="Group_1804" data-name="Group 1804">
      <rect id="Rectangle_2603" data-name="Rectangle 2603" width="0.127" height="11.396" transform="translate(393.892 405.533) rotate(-44.999)" fill="#fff"/>
    </g>
    <g id="Group_1805" data-name="Group 1805">
      <rect id="Rectangle_2604" data-name="Rectangle 2604" width="11.397" height="0.127" transform="matrix(0.707, -0.707, 0.707, 0.707, 393.893, 413.502)" fill="#fff"/>
    </g>
    <g id="Group_1806" data-name="Group 1806">
      <path id="Path_1182" data-name="Path 1182" d="M396.655,404.565l-.175-.1.051-.364.226.29Z" fill="#fff"/>
      <path id="Path_1183" data-name="Path 1183" d="M395.433,405.071l-.2-.052-.045-.365.293.222Z" fill="#fff"/>
      <path id="Path_1184" data-name="Path 1184" d="M393.578,406.926l-.2.052-.222-.294.365.045Z" fill="#fff"/>
      <path id="Path_1185" data-name="Path 1185" d="M393.072,408.148l-.175.1-.29-.226.364-.051Z" fill="#fff"/>
      <path id="Path_1186" data-name="Path 1186" d="M393.072,410.771l-.1.175-.364-.051.29-.226Z" fill="#fff"/>
      <path id="Path_1187" data-name="Path 1187" d="M393.578,411.993l-.052.2-.365.045.222-.294Z" fill="#fff"/>
      <path id="Path_1188" data-name="Path 1188" d="M395.433,413.848l.053.2-.294.221.045-.364Z" fill="#fff"/>
      <path id="Path_1189" data-name="Path 1189" d="M396.655,414.354l.1.176-.226.29-.051-.364Z" fill="#fff"/>
      <path id="Path_1190" data-name="Path 1190" d="M399.278,414.354l.175.1-.051.364-.227-.29Z" fill="#fff"/>
      <path id="Path_1191" data-name="Path 1191" d="M400.5,413.848l.2.052.045.365-.294-.222Z" fill="#fff"/>
      <path id="Path_1192" data-name="Path 1192" d="M402.355,411.993l.2-.053.222.294-.364-.045Z" fill="#fff"/>
      <path id="Path_1193" data-name="Path 1193" d="M402.861,410.771l.176-.1.29.226-.364.051Z" fill="#fff"/>
      <path id="Path_1194" data-name="Path 1194" d="M402.861,408.148l.1-.175.364.051-.29.225Z" fill="#fff"/>
      <path id="Path_1195" data-name="Path 1195" d="M402.355,406.926l.052-.2.365-.045-.221.293Z" fill="#fff"/>
      <path id="Path_1196" data-name="Path 1196" d="M400.5,405.071l-.053-.2.294-.222-.045.365Z" fill="#fff"/>
      <path id="Path_1197" data-name="Path 1197" d="M399.278,404.565l-.1-.175.226-.29.05.364Z" fill="#fff"/>
    </g>
  </g>
</svg>
