<svg xmlns="http://www.w3.org/2000/svg" width="114" height="114" viewBox="0 0 114 114">
  <g id="lekbabo" transform="translate(-388 -2507)">
    <g id="Ellipse_81" data-name="Ellipse 81" transform="translate(388 2507)" fill="#f8f3f1" stroke="#61697f" stroke-width="1">
      <circle cx="57" cy="57" r="57" stroke="none"/>
      <circle cx="57" cy="57" r="56.5" fill="none"/>
    </g>
    <g id="money-bag-with-dollar-symbol" transform="translate(391.762 2543)">
      <g id="Group_1610" data-name="Group 1610" transform="translate(36.238 0)">
        <g id="Group_1603" data-name="Group 1603" transform="translate(17.878 26.375)">
          <path id="Path_962" data-name="Path 962" d="M223.295,274a1.952,1.952,0,0,0-.548-.4,6.607,6.607,0,0,0-1.387-.49v3.671a2.608,2.608,0,0,0,2.056-1.084h0a1.677,1.677,0,0,0,.153-1.146A1.153,1.153,0,0,0,223.295,274Z" transform="translate(-221.36 -273.108)" fill="#61697f"/>
        </g>
        <g id="Group_1604" data-name="Group 1604" transform="translate(19.929 28.962)">
          <path id="Path_963" data-name="Path 963" d="M242.6,299.907l0-.007h0Z" transform="translate(-242.604 -299.9)" fill="#61697f"/>
        </g>
        <g id="Group_1605" data-name="Group 1605" transform="translate(14.023 20.484)">
          <path id="Path_964" data-name="Path 964" d="M181.689,213.016a1.377,1.377,0,0,0-.238.645,1.547,1.547,0,0,0,.079.713,1.144,1.144,0,0,0,.444.489,3.467,3.467,0,0,0,.66.341c.193.078.409.152.643.223v-3.322A2.535,2.535,0,0,0,181.689,213.016Z" transform="translate(-181.441 -212.106)" fill="#61697f"/>
        </g>
        <g id="Group_1606" data-name="Group 1606" transform="translate(19.933 28.935)">
          <path id="Path_965" data-name="Path 965" d="M242.662,299.619l-.015.027h0Z" transform="translate(-242.647 -299.619)" fill="#61697f"/>
        </g>
        <g id="Group_1607" data-name="Group 1607" transform="translate(19.968 28.899)">
          <path id="Path_966" data-name="Path 966" d="M243,299.246Z" transform="translate(-243.004 -299.244)" fill="#61697f"/>
        </g>
        <g id="Group_1608" data-name="Group 1608" transform="translate(0 0)">
          <path id="Path_967" data-name="Path 967" d="M55.409,8.93C58.531,6.307,60.617.4,59.334.14c-1.706-.344-5.41,1.163-7.2,1.428-2.539.307-5.305-2.754-6.858-1.048-1.262,1.387.9,6.431,4.3,8.628-10.116,4.972-24.335,29.931.471,31.742C84.364,43.4,67.178,13.775,55.409,8.93Zm2.948,19.684a3.608,3.608,0,0,1-1.392,2.45,5.32,5.32,0,0,1-2.849,1.006v1.075a1.009,1.009,0,1,1-2.019,0V31.971c-.174-.033-.347-.072-.517-.119a4.956,4.956,0,0,1-2.47-1.519,4.451,4.451,0,0,1-.761-1.258c-.047-.12-.089-.242-.126-.365a1.873,1.873,0,0,1-.08-.342,1.009,1.009,0,0,1,1.963-.419c.038.116.065.236.108.351a2.249,2.249,0,0,0,.155.331,2.573,2.573,0,0,0,.443.567,3,3,0,0,0,1.285.7V25.9A7.185,7.185,0,0,1,49.45,24.76a3.08,3.08,0,0,1-.894-1.074,3.36,3.36,0,0,1-.312-1.445,3.444,3.444,0,0,1,.3-1.463,3.568,3.568,0,0,1,.828-1.136A5.057,5.057,0,0,1,52.1,18.434V17.318a1.009,1.009,0,1,1,2.019,0v1.11q.2.025.395.06a4.986,4.986,0,0,1,2.636,1.279,3.852,3.852,0,0,1,.807,1.16,3.7,3.7,0,0,1,.143.369,2.242,2.242,0,0,1,.095.36,1.01,1.01,0,0,1-1.941.51c-.042-.11-.063-.227-.107-.337a1.779,1.779,0,0,0-.165-.318,1.926,1.926,0,0,0-.477-.5,3.273,3.273,0,0,0-1.386-.541v3.823a12.818,12.818,0,0,1,1.724.512,4.031,4.031,0,0,1,2.1,1.648c-.071-.125-.141-.248,0,0s.074.129,0,.006A3.6,3.6,0,0,1,58.357,28.614Z" transform="translate(-36.238 0)" fill="#61697f"/>
        </g>
        <g id="Group_1609" data-name="Group 1609" transform="translate(19.903 28.988)">
          <path id="Path_968" data-name="Path 968" d="M242.352,300.169l-.015.027Z" transform="translate(-242.337 -300.169)" fill="#61697f"/>
        </g>
      </g>
    </g>
  </g>
</svg>
