<svg xmlns="http://www.w3.org/2000/svg" width="114" height="114" viewBox="0 0 114 114">
  <g id="matjet" transform="translate(-1425 -2154)">
    <g id="Ellipse_70" data-name="Ellipse 70" transform="translate(1425 2154)" fill="#f8f3f1" stroke="#61697f" stroke-width="1">
      <circle cx="57" cy="57" r="57" stroke="none"/>
      <circle cx="57" cy="57" r="56.5" fill="none"/>
    </g>
    <path id="area" d="M35.913,29a3.615,3.615,0,0,1,0,5.106l-.006.006-2.47,2.44a1.444,1.444,0,1,1-2.03-2.055l1.445-1.428H9.675A5.783,5.783,0,0,1,3.9,27.3V4.084L2.457,5.505A1.444,1.444,0,1,1,.428,3.449l2.44-2.407a3.64,3.64,0,0,1,5.092,0L10.4,3.449A1.444,1.444,0,0,1,8.372,5.505L6.786,3.941V27.3a2.892,2.892,0,0,0,2.888,2.888H33l-1.592-1.572a1.444,1.444,0,1,1,2.03-2.055L35.906,29l.006.006ZM32.638,0h-18.7a1.444,1.444,0,1,0,0,2.888h18.7a1.444,1.444,0,0,1,1.444,1.444V23.108a1.444,1.444,0,1,0,2.888,0V4.333A4.333,4.333,0,0,0,32.638,0ZM21.228,24.76a1.444,1.444,0,0,0,1.444-1.444V16.888a3.97,3.97,0,0,0-6.5-3.061,3.965,3.965,0,0,0-4.081-.593A1.443,1.443,0,0,0,9.675,14.3v9.026a1.444,1.444,0,1,0,2.888,0V16.888a1.083,1.083,0,0,1,2.166,0v6.436a1.444,1.444,0,1,0,2.888,0V16.888a1.083,1.083,0,0,1,2.166,0v6.428A1.444,1.444,0,0,0,21.228,24.76ZM27.782,7.8h-.045a3.337,3.337,0,0,0-3.331,3.335,1.444,1.444,0,1,0,2.888,0,.451.451,0,0,1,.443-.447h.045a.451.451,0,0,1,.441.417,7.007,7.007,0,0,1-1.634,2.282c-.858.944-1.7,1.712-1.71,1.72a1.444,1.444,0,0,0,.971,2.514h3.9a1.444,1.444,0,1,0,0-2.888h-.5c1.282-1.51,1.86-2.633,1.86-3.6A3.337,3.337,0,0,0,27.782,7.8Zm0,0" transform="translate(1464.002 2193)" fill="#61697f"/>
  </g>
</svg>
