<svg xmlns="http://www.w3.org/2000/svg" width="114" height="114" viewBox="0 0 114 114">
  <g id="pasosha" transform="translate(-1425 -2507)">
    <g id="Ellipse_84" data-name="Ellipse 84" transform="translate(1425 2507)" fill="#f8f3f1" stroke="#61697f" stroke-width="1">
      <circle cx="57" cy="57" r="57" stroke="none"/>
      <circle cx="57" cy="57" r="56.5" fill="none"/>
    </g>
    <g id="passport-card" transform="translate(1498.547 2542.387)">
      <g id="Group_1613" data-name="Group 1613" transform="translate(-35.547 2.613)">
        <path id="Path_973" data-name="Path 973" d="M471.962,89.023l-7.538-2.183v29.106a3.91,3.91,0,0,1-.024.43,1.965,1.965,0,0,0,2.078-1.408L473.3,91.457A1.965,1.965,0,0,0,471.962,89.023Z" transform="translate(-436.082 -81.54)" fill="#61697f"/>
        <path id="Path_974" data-name="Path 974" d="M149.364,139.871a6.545,6.545,0,0,0-2.123,1.489H148.7A8.075,8.075,0,0,1,149.364,139.871Z" transform="translate(-138.282 -131.334)" fill="#61697f"/>
        <path id="Path_975" data-name="Path 975" d="M121.2,185.771h-2.068a6.468,6.468,0,0,0-.8,2.519H120.9A15,15,0,0,1,121.2,185.771Z" transform="translate(-111.142 -174.432)" fill="#61697f"/>
        <path id="Path_976" data-name="Path 976" d="M269.249,141.362a6.545,6.545,0,0,0-2.123-1.489,8.069,8.069,0,0,1,.668,1.489Z" transform="translate(-250.849 -131.336)" fill="#61697f"/>
        <path id="Path_977" data-name="Path 977" d="M147.239,311.3a6.545,6.545,0,0,0,2.123,1.489,8.074,8.074,0,0,1-.668-1.489Z" transform="translate(-138.28 -292.3)" fill="#61697f"/>
        <path id="Path_978" data-name="Path 978" d="M187.056,188.289a13.211,13.211,0,0,0-.347-2.519h-4.523a13.2,13.2,0,0,0-.347,2.519Z" transform="translate(-170.768 -174.431)" fill="#61697f"/>
        <path id="Path_979" data-name="Path 979" d="M196.173,131c-.649,0-1.337.766-1.846,2.031h3.693C197.511,131.768,196.822,131,196.173,131Z" transform="translate(-182.494 -123.006)" fill="#61697f"/>
        <path id="Path_980" data-name="Path 980" d="M120.9,248.536h-2.563a6.467,6.467,0,0,0,.8,2.519H121.2A15.018,15.018,0,0,1,120.9,248.536Z" transform="translate(-111.141 -233.366)" fill="#61697f"/>
        <path id="Path_981" data-name="Path 981" d="M284.206,188.289h2.562a6.467,6.467,0,0,0-.8-2.519h-2.068A15.011,15.011,0,0,1,284.206,188.289Z" transform="translate(-266.604 -174.431)" fill="#61697f"/>
        <path id="Path_982" data-name="Path 982" d="M196.172,313.334c.649,0,1.337-.766,1.846-2.03h-3.693C194.835,312.569,195.524,313.334,196.172,313.334Z" transform="translate(-182.493 -292.303)" fill="#61697f"/>
        <path id="Path_983" data-name="Path 983" d="M283.9,251.055h2.068a6.468,6.468,0,0,0,.8-2.519H284.2A15,15,0,0,1,283.9,251.055Z" transform="translate(-266.603 -233.366)" fill="#61697f"/>
        <path id="Path_984" data-name="Path 984" d="M95.732,437.134H94.607v2.142h1.125c.89,0,1.342-.366,1.342-1.089C97.074,437.488,96.623,437.134,95.732,437.134Z" transform="translate(-88.86 -410.453)" fill="#61697f"/>
        <path id="Path_985" data-name="Path 985" d="M172.445,449.327H174l-.785-1.7Z" transform="translate(-161.947 -420.309)" fill="#61697f"/>
        <path id="Path_986" data-name="Path 986" d="M24.868,0H3.405A2.952,2.952,0,0,0,.457,2.948V34.406a2.952,2.952,0,0,0,2.948,2.948H24.868a2.951,2.951,0,0,0,2.948-2.948V2.948A2.951,2.951,0,0,0,24.868,0ZM14.136,6.684a7.83,7.83,0,1,1-7.83,7.83A7.839,7.839,0,0,1,14.136,6.684ZM6.2,29.852v1.242a.491.491,0,0,1-.491.491H5.666a.491.491,0,0,1-.491-.491V26.143a.491.491,0,0,1,.491-.491H7.329c1.462,0,2.371.8,2.371,2.082a2.091,2.091,0,0,1-2.371,2.118H6.2Zm8.273,1.507a.491.491,0,0,1-.414.227h-.058a.491.491,0,0,1-.446-.286l-.576-1.253H10.488L9.918,31.3a.491.491,0,0,1-.447.288H9.406a.491.491,0,0,1-.447-.7l2.266-4.951a.491.491,0,0,1,.447-.287h.1a.491.491,0,0,1,.446.285l2.295,4.951A.492.492,0,0,1,14.477,31.359Zm2.184.227a2.978,2.978,0,0,1-2-.8.491.491,0,0,1-.006-.7l.031-.031a.491.491,0,0,1,.694,0,1.921,1.921,0,0,0,1.279.5c.519,0,1.125-.168,1.125-.641,0-.456-.272-.612-1.158-.881-.786-.237-1.861-.563-1.861-1.821,0-.934.825-1.562,2.053-1.562a3.128,3.128,0,0,1,1.53.406.491.491,0,0,1,.163.68l-.02.032a.491.491,0,0,1-.67.162,2.13,2.13,0,0,0-1-.251c-.472,0-1.024.14-1.024.533,0,.426.27.576,1.139.838.8.241,1.89.571,1.881,1.867C18.815,30.914,17.95,31.585,16.661,31.585Zm4.283,0a2.978,2.978,0,0,1-2-.8.491.491,0,0,1-.006-.7l.031-.031a.491.491,0,0,1,.694,0,1.921,1.921,0,0,0,1.279.5c.519,0,1.125-.168,1.125-.641,0-.456-.272-.612-1.158-.881-.786-.238-1.861-.563-1.861-1.821,0-.934.825-1.562,2.053-1.562a3.129,3.129,0,0,1,1.53.406.491.491,0,0,1,.162.682l-.02.032a.492.492,0,0,1-.668.16,2.131,2.131,0,0,0-1-.251c-.473,0-1.024.14-1.024.533,0,.426.27.576,1.139.838.8.241,1.891.571,1.881,1.867C23.1,30.914,22.233,31.585,20.944,31.585Z" transform="translate(-0.457)" fill="#61697f"/>
        <path id="Path_987" data-name="Path 987" d="M181.839,248.536a13.21,13.21,0,0,0,.347,2.519h4.523a13.211,13.211,0,0,0,.347-2.519Z" transform="translate(-170.768 -233.366)" fill="#61697f"/>
        <path id="Path_988" data-name="Path 988" d="M267.126,312.79a6.545,6.545,0,0,0,2.123-1.489h-1.455A8.072,8.072,0,0,1,267.126,312.79Z" transform="translate(-250.849 -292.3)" fill="#61697f"/>
      </g>
    </g>
  </g>
</svg>
