<svg xmlns="http://www.w3.org/2000/svg" width="114" height="114" viewBox="0 0 114 114">
  <g id="point" transform="translate(-388 -2154)">
    <g id="Ellipse_70" data-name="Ellipse 70" transform="translate(388 2154)" fill="#f8f3f1" stroke="#61697f" stroke-width="1">
      <circle cx="57" cy="57" r="57" stroke="none"/>
      <circle cx="57" cy="57" r="56.5" fill="none"/>
    </g>
    <path id="Facebook_Places" d="M96.7,11.023a13.8,13.8,0,0,0-.715-1.772A15.174,15.174,0,0,0,66.9,13.739v1.89c0,.079.027.787.066,1.142.552,4.409,4.031,9.094,6.629,13.5,2.8,4.724,5.7,9.37,8.57,14.015,1.772-3.031,3.538-6.1,5.269-9.055.472-.867,1.02-1.733,1.492-2.56.315-.551.916-1.1,1.191-1.614,2.8-5.118,7.294-10.275,7.294-15.353V13.622A15.715,15.715,0,0,0,96.7,11.023ZM82.077,20.511a5.415,5.415,0,0,1-5.184-3.7,5.134,5.134,0,0,1-.146-1.379v-1.22c0-3.464,2.941-5.039,5.5-5.039a5.576,5.576,0,0,1,5.586,5.67A5.719,5.719,0,0,1,82.077,20.511Z" transform="translate(363.095 2189)" fill="#61697f"/>
  </g>
</svg>
