<svg xmlns="http://www.w3.org/2000/svg" width="114" height="114" viewBox="0 0 114 114">
  <g id="visafalas" transform="translate(-1079 -2507)">
    <g id="Ellipse_83" data-name="Ellipse 83" transform="translate(1079 2507)" fill="#f8f3f1" stroke="#61697f" stroke-width="1">
      <circle cx="57" cy="57" r="57" stroke="none"/>
      <circle cx="57" cy="57" r="56.5" fill="none"/>
    </g>
    <g id="passport" transform="translate(1120.5 2545)">
      <path id="Path_969" data-name="Path 969" d="M225.915,166.727l-.554,1.662a.673.673,0,0,1-.506.446l-2.942.588-.5,2.015,2.2,3.842,1.184-.79.618-3.09a.672.672,0,0,1,.325-.451l2.931-1.675A6.081,6.081,0,0,0,225.915,166.727Zm0,0" transform="translate(-202.362 -152.729)" fill="#61697f"/>
      <path id="Path_970" data-name="Path 970" d="M171.652,6.995l-1.147-1.147a.672.672,0,0,1,0-.95l1.147-1.147V0H156.875V3.752L158.022,4.9a.671.671,0,0,1,0,.95l-1.147,1.147V8.06h14.777ZM160.9,6.045h-1.343V4.7H160.9Zm2.687,0h-1.343V4.7h1.343Zm2.687,0h-1.343V4.7h1.343Zm2.687,0h-1.343V4.7h1.343Zm0,0" transform="translate(-143.246)" fill="#61697f"/>
      <path id="Path_971" data-name="Path 971" d="M10.468,232.535a.672.672,0,0,1,0-.95l4.7-4.7a1.228,1.228,0,0,0-1.737-1.737l-4.7,4.7-.95-.95L9.6,227.08V224H6.682a2.7,2.7,0,0,0-2.68,2.5l-.447,6.284a.671.671,0,0,1-.2.427L.5,236.064l5.717,5.145,4.251-4.251a3.132,3.132,0,0,0,0-4.424Zm0,0" transform="translate(0 -205.193)" fill="#61697f"/>
      <path id="Path_972" data-name="Path 972" d="M124.875,112v11.14l1.54-1.54a2.571,2.571,0,0,1,3.636,3.636l-4.262,4.263a4.479,4.479,0,0,1-.439,5.813l-.475.475v4.424h20.15V112Zm8.06,26.2h-1.343v-1.343h1.343Zm2.687,0h-1.343v-1.343h1.343Zm2.687,0h-1.343v-1.343h1.343Zm2.015-2.687H129.577v-1.343h10.747Zm0-2.687H129.577v-1.343h10.747Zm-5.373-3.358a7.327,7.327,0,0,1-4.433-1.478l.806-1.074a6.039,6.039,0,0,0,9.43-6.515l-2.517,1.439-.612,3.061a.672.672,0,0,1-.285.427l-2.015,1.343a.67.67,0,0,1-.373.11.7.7,0,0,1-.154-.017.672.672,0,0,1-.428-.321l-2.687-4.7a.671.671,0,0,1-.067-.5l.672-2.687a.672.672,0,0,1,.52-.5l2.976-.6.433-1.3a6.036,6.036,0,0,0-6.8,3.492l-1.231-.537a7.388,7.388,0,1,1,6.772,10.343Zm0,0" transform="translate(-113.933 -102.597)" fill="#61697f"/>
    </g>
  </g>
</svg>
